<svg width="487" height="530" viewBox="0 0 487 530" fill="none" xmlns="http://www.w3.org/2000/svg">
<path d="M81 289.289V279.289C75.4772 279.289 71 283.767 71 289.289H81ZM403.5 289.289H413.5C413.5 283.767 409.023 279.289 403.5 279.289V289.289ZM403.5 519.789V529.789C409.023 529.789 413.5 525.312 413.5 519.789H403.5ZM81 519.789H71C71 525.312 75.4772 529.789 81 529.789V519.789ZM74.8413 295.572C78.0348 300.078 84.2765 301.142 88.7824 297.948C93.2883 294.755 94.3522 288.513 91.1587 284.007L74.8413 295.572ZM18.1587 181.007C14.9652 176.501 8.72355 175.437 4.21763 178.631C-0.28829 181.824 -1.3522 188.066 1.84131 192.572L18.1587 181.007ZM395.841 284.507C392.648 289.013 393.712 295.255 398.218 298.448C402.724 301.642 408.965 300.578 412.159 296.072L395.841 284.507ZM485.159 193.072C488.352 188.566 487.288 182.324 482.782 179.131C478.276 175.937 472.035 177.001 468.841 181.507L485.159 193.072ZM124.618 260.116L115.16 263.363C116.953 268.586 122.641 271.368 127.864 269.575L124.618 260.116ZM98 182.557L94.7539 173.098C92.2453 173.959 90.1815 175.782 89.0165 178.164C87.8515 180.547 87.6806 183.295 88.5415 185.803L98 182.557ZM177.451 155.29L186.91 152.043C185.117 146.82 179.429 144.038 174.205 145.831L177.451 155.29ZM204.069 232.849L207.316 242.307C209.824 241.447 211.888 239.624 213.053 237.242C214.218 234.859 214.389 232.111 213.528 229.603L204.069 232.849ZM144.618 126.116L135.16 129.363C136.953 134.586 142.641 137.368 147.864 135.575L144.618 126.116ZM118 48.557L114.754 39.0985C112.245 39.9594 110.182 41.7816 109.016 44.1642C107.851 46.5467 107.681 49.2945 108.542 51.8031L118 48.557ZM230.346 10L239.805 6.75388C238.944 4.24533 237.122 2.18154 234.739 1.01649C232.356 -0.148547 229.609 -0.319397 227.1 0.541529L230.346 10ZM256.964 87.5595L260.211 97.0179C265.434 95.2251 268.216 89.5371 266.423 84.3133L256.964 87.5595ZM245 204.122L235.584 200.755C233.724 205.955 236.432 211.678 241.632 213.538L245 204.122ZM286.072 89.2894L289.44 79.8735C286.942 78.9803 284.192 79.1158 281.795 80.25C279.398 81.3843 277.549 83.4244 276.656 85.9216L286.072 89.2894ZM403.706 131.363L413.122 134.731C414.981 129.531 412.274 123.807 407.073 121.947L403.706 131.363ZM362.634 246.196L359.266 255.612C361.763 256.505 364.513 256.37 366.91 255.235C369.308 254.101 371.157 252.061 372.05 249.564L362.634 246.196ZM81 299.289H403.5V279.289H81V299.289ZM393.5 289.289V519.789H413.5V289.289H393.5ZM403.5 509.789H81V529.789H403.5V509.789ZM91 519.789V289.289H71V519.789H91ZM91.1587 284.007L18.1587 181.007L1.84131 192.572L74.8413 295.572L91.1587 284.007ZM412.159 296.072L485.159 193.072L468.841 181.507L395.841 284.507L412.159 296.072ZM134.077 256.87L107.458 179.311L88.5415 185.803L115.16 263.363L134.077 256.87ZM101.246 192.015L180.697 164.748L174.205 145.831L94.7539 173.098L101.246 192.015ZM167.993 158.536L194.611 236.095L213.528 229.603L186.91 152.043L167.993 158.536ZM200.823 223.391L121.372 250.658L127.864 269.575L207.316 242.307L200.823 223.391ZM154.077 122.87L127.458 45.3108L108.542 51.8031L135.16 129.363L154.077 122.87ZM121.246 58.0154L233.592 19.4585L227.1 0.541529L114.754 39.0985L121.246 58.0154ZM220.888 13.2461L247.506 90.8056L266.423 84.3133L239.805 6.75388L220.888 13.2461ZM253.718 78.101L141.372 116.658L147.864 135.575L260.211 97.0179L253.718 78.101ZM254.416 207.49L295.488 92.6571L276.656 85.9216L235.584 200.755L254.416 207.49ZM282.704 98.7052L400.338 140.779L407.073 121.947L289.44 79.8735L282.704 98.7052ZM394.29 127.995L353.218 242.828L372.05 249.564L413.122 134.731L394.29 127.995ZM366.002 236.78L248.368 194.707L241.632 213.538L359.266 255.612L366.002 236.78Z" fill="black"/>
</svg>
